Coordinates
version=1
nRows=11
nColumns=36
inDegrees=yes

Units are S.I. units (second, meters, Newtons, ...)
If the header above contains a line with 'inDegrees', this indicates whether rotational values are in degrees (yes) or radians (no).

endheader
time	pelvis_tilt	pelvis_list	pelvis_rotation	pelvis_tx	pelvis_ty	pelvis_tz	hip_flexion_r	hip_adduction_r	hip_rotation_r	knee_angle_r	knee_angle_r_beta	ankle_angle_r	subtalar_angle_r	mtp_angle_r	hip_flexion_l	hip_adduction_l	hip_rotation_l	knee_angle_l	knee_angle_l_beta	ankle_angle_l	subtalar_angle_l	mtp_angle_l	lumbar_extension	lumbar_bending	lumbar_rotation	arm_flex_r	arm_add_r	arm_rot_r	elbow_flex_r	pro_sup_r	arm_flex_l	arm_add_l	arm_rot_l	elbow_flex_l	pro_sup_l
      4.06666670	     -0.35900105	    -11.82312014	      8.76812073	      0.40219145	      0.85230032	      0.33590441	     33.12502925	     -1.92652095	     -0.71422666	     10.91468567	      0.19049720	     -9.82352937	    -12.03740884	     -7.49999987	     12.69247592	     -3.57670760	      4.81527565	     16.10186364	      0.28103054	      4.72905103	     -0.78589278	     -7.49999987	     -3.71281317	      3.44334453	      3.24509445	     54.78141471	      9.43480609	     70.51373526	    130.17071576	     92.49441872	     50.37421013	     -1.00000111	     55.86433652	    123.62655718	     74.06783516
      4.08333330	      0.15179288	    -11.56874314	      8.69580679	      0.40643443	      0.85597905	      0.33332106	     31.77518852	     -1.78294733	     -0.48792441	     10.49362097	      0.18314824	     -9.48483966	    -11.63943873	     -7.49999987	     11.44655800	     -3.15487428	      5.43537357	     15.39793269	      0.26874462	      4.28511327	     -1.59636298	     -7.49999987	     -3.36206107	      3.75646822	      3.60358904	     54.25542722	      9.35506794	     69.98324733	    129.81548486	     91.77668021	     47.76996582	     -0.29561064	     49.93565171	    121.05337989	     73.56382447
      4.10000000	      0.54086855	    -11.23524387	      8.83452618	      0.40569195	      0.85840640	      0.33362703	     30.67057084	     -1.87402092	     -0.62377824	      9.91567232	      0.17306113	     -9.22836366	    -10.68652150	     -7.49999987	     10.84435457	     -2.59817113	      5.98522904	     15.27273088	      0.26655944	      3.54892658	     -2.48639578	     -7.49999987	     -3.37030035	      3.90840514	      3.40402869	     54.00892210	      9.31980901	     69.43960507	    129.17773436	     95.06746619	     45.94350201	      0.38131654	     45.30617412	    119.23053460	     80.51175734
      4.11666670	      0.78622040	    -10.80090337	      8.69118463	      0.41078591	      0.85250183	      0.33114457	     29.94651597	     -2.03013158	     -0.64771453	      9.62471732	      0.16798301	     -8.54441135	    -10.10996737	     -7.49999987	      9.64848906	     -2.02785532	      6.24388938	     14.16388133	      0.24720636	      4.02720483	     -2.82195001	     -7.49999987	     -2.98591643	      3.80289095	      3.80325660	     53.66335011	      8.97738554	     68.57450157	    129.14711229	     95.32134581	     44.95656439	      1.35670767	     42.47501409	    117.32796166	     81.02170248
      4.13333330	      0.72872837	    -10.32928749	      8.08492830	      0.41002653	      0.85834934	      0.33215548	     29.46724544	     -2.01896666	     -0.45419556	      8.99009279	      0.15690672	     -8.23333467	     -9.68518259	     -7.49999987	      9.09048869	     -1.41998836	      6.23234571	     13.57305374	      0.23689448	      4.37872764	     -3.00648147	     -7.49999987	     -2.52609686	      3.68005472	      4.39133224	     53.26975815	      9.04903348	     68.56380934	    129.16431490	     95.38010878	     43.67960409	      1.78393250	     40.70125373	    116.51789092	     81.01638753
      4.15000000	      1.01061231	     -9.94749865	      7.75191756	      0.41607385	      0.85562063	      0.33503255	     28.57861899	     -1.92514736	     -0.42859456	      8.46665299	      0.14777097	     -7.86730553	     -9.18877136	     -7.49999987	      8.26390582	     -1.19136697	      6.17678202	     13.18829614	      0.23017919	      4.96664619	     -2.93360305	     -7.49999987	     -2.03476042	      3.72309424	      4.92767212	     52.83513699	      9.01554968	     67.54070530	    128.86903198	     95.44472934	     42.44443369	      2.31512271	     38.67363927	    115.65338818	     81.08518407
      4.16666670	      1.10308358	     -9.77195481	      7.52817445	      0.42120503	      0.85781822	      0.33749767	     27.70591759	     -1.57373238	     -0.60029546	      8.01866768	      0.13995215	     -7.47001426	     -8.75516655	     -7.49999987	      7.45157697	     -1.20269129	      5.66270911	     12.82265788	      0.22379760	      5.32423013	     -2.73367527	     -7.49999987	     -1.26836295	      3.72313444	      5.36841590	     52.00161261	      9.11257842	     66.27384150	    128.73168823	     94.75451251	     41.23223294	      2.42644153	     37.65267718	    115.17515055	     80.21871587
      4.18333330	      1.13781708	     -9.67862101	      7.23806223	      0.41986401	      0.86022507	      0.33234299	     26.96807778	     -1.27669240	     -0.89300862	      7.69681229	      0.13433472	     -6.83804008	     -7.90484719	     -7.49999987	      6.70803286	     -1.14001358	      5.05670673	     12.33069331	      0.21521120	      5.69000735	     -2.67668638	     -7.49999987	     -0.53723507	      4.04251481	      5.55704483	     51.58255007	      9.29974645	     65.74745259	    128.43068061	     95.10938061	     40.14641348	      2.76631532	     36.59694802	    114.93761769	     80.74731278
      4.20000000	      0.92256196	     -9.77022763	      6.90593169	      0.42588504	      0.86106451	      0.33498245	     26.48326276	     -0.69685677	     -0.90922975	      7.55258315	      0.13181744	     -6.34561096	     -7.70706683	     -7.49999987	      5.94525038	     -1.37721050	      4.80602495	     11.53469037	      0.20131833	      6.01031580	     -2.57174928	     -7.49999987	      0.53295776	      4.17775769	      5.74396478	     50.63293858	      9.81278201	     65.79186885	    128.40498344	     94.69400412	     39.21710864	      2.75845490	     36.45989434	    114.78080213	     80.41945218
      4.21666670	      1.00589249	     -9.70030250	      6.66413986	      0.42602981	      0.85894152	      0.33533051	     25.97173702	     -0.44040909	     -0.87630956	      7.68430612	      0.13411644	     -5.75153939	     -6.96390488	     -7.49999987	      5.04730441	     -1.39730735	      4.41870030	     10.71448083	      0.18700297	      6.52822568	     -2.00692919	     -7.49999987	      1.04011738	      4.48729217	      5.62996023	     50.30654196	     10.49511373	     65.56348793	    127.82935821	     95.36475697	     38.44739289	      2.72937526	     35.38429836	    114.94774325	     81.35769677
      4.23333330	      0.99234812	     -9.51674235	      6.57043095	      0.41988663	      0.86033171	      0.33309905	     25.86831820	     -0.48837292	     -0.71514608	      7.91922372	      0.13821653	     -5.63204773	     -6.88528300	     -7.49999987	      4.81256349	     -1.14992067	      4.26236861	     10.36936161	      0.18097950	      6.87151556	     -2.09516236	     -7.49999987	      1.43481309	      4.48699331	      5.35799973	     50.20454748	     10.65129844	     65.61188507	    127.92492495	     95.44269559	     38.35992743	      2.67401707	     35.40131942	    114.78162707	     81.46793720
